<?xml version="1.0" encoding="UTF-8" standalone="no"?>
<svg
   xmlns:dc="http://purl.org/dc/elements/1.1/"
   xmlns:cc="http://creativecommons.org/ns#"
   xmlns:rdf="http://www.w3.org/1999/02/22-rdf-syntax-ns#"
   xmlns:svg="http://www.w3.org/2000/svg"
   xmlns="http://www.w3.org/2000/svg"
   xmlns:sodipodi="http://sodipodi.sourceforge.net/DTD/sodipodi-0.dtd"
   xmlns:inkscape="http://www.inkscape.org/namespaces/inkscape"
   id="youtube.svg"
   width="33"
   height="33"
   viewBox="0 0 33 33"
   version="1.1"
   sodipodi:docname="linkedin.svg"
   inkscape:version="0.92.3 (2405546, 2018-03-11)">
  <metadata
     id="metadata12">
    <rdf:RDF>
      <cc:Work
         rdf:about="">
        <dc:format>image/svg+xml</dc:format>
        <dc:type
           rdf:resource="http://purl.org/dc/dcmitype/StillImage" />
        <dc:title></dc:title>
      </cc:Work>
    </rdf:RDF>
  </metadata>
  <sodipodi:namedview
     pagecolor="#ffffff"
     bordercolor="#666666"
     borderopacity="1"
     objecttolerance="10"
     gridtolerance="10"
     guidetolerance="10"
     inkscape:pageopacity="0"
     inkscape:pageshadow="2"
     inkscape:window-width="1920"
     inkscape:window-height="1017"
     id="namedview10"
     showgrid="false"
     inkscape:zoom="4.72"
     inkscape:cx="-67.862241"
     inkscape:cy="12.353033"
     inkscape:window-x="-8"
     inkscape:window-y="-8"
     inkscape:window-maximized="1"
     inkscape:current-layer="youtube.svg" />
  <defs
     id="defs4">
    <style
       id="style2">
      .cls-1, .cls-3 {
        fill: #ec162c;
      }

      .cls-2 {
        fill: #fff;
      }

      .cls-3 {
        fill-rule: evenodd;
      }
    </style>
  </defs>
  <ellipse
     style="opacity:1;fill:#006699;fill-opacity:1;stroke:none;stroke-width:2.66343307;stroke-linecap:round;stroke-miterlimit:4;stroke-dasharray:none;stroke-dashoffset:0;stroke-opacity:1"
     id="path815"
     cx="16.519943"
     cy="16.314743"
     rx="16.519943"
     ry="16.385635" />
  <path
     inkscape:connector-curvature="0"
     id="path28"
     style="fill:#ffffff;fill-opacity:1;fill-rule:evenodd;stroke:none;stroke-width:0.43841702"
     d="M 11.023144,26.269483 V 11.453618 H 6.0986218 V 26.269483 Z M 8.5608616,9.4307605 c 1.7172814,0 2.7861424,-1.1376894 2.7861424,-2.5594781 -0.03201,-1.4537908 -1.068861,-2.5599169 -2.7535684,-2.5599169 -1.6845298,0 -2.7859224,1.1061261 -2.7859224,2.5599169 0,1.4217887 1.0686413,2.5594781 2.7212547,2.5594781 h 0.032014 z" />
  <path
     inkscape:connector-curvature="0"
     id="path30"
     style="fill:#ffffff;fill-opacity:1;fill-rule:evenodd;stroke:none;stroke-width:0.43841702"
     d="m 13.748035,26.269483 h 4.924479 v -8.273805 c 0,-0.442803 0.03201,-0.885167 0.162039,-1.201703 0.355992,-0.884724 1.166276,-1.801016 2.526684,-1.801016 1.781945,0 2.494767,1.358656 2.494767,3.350384 v 7.92614 h 4.924083 v -8.495206 c 0,-4.550772 -2.429487,-6.668324 -5.669437,-6.668324 -2.65663,0 -3.822905,1.48492 -4.470887,2.496346 h 0.03288 v -2.148681 h -4.924471 c 0.06463,1.390219 0,14.815865 0,14.815865 z" />
</svg>
